<?xml version="1.0" standalone="no"?>
<!DOCTYPE svg PUBLIC "-//W3C//DTD SVG 20010904//EN"
 "http://www.w3.org/TR/2001/REC-SVG-20010904/DTD/svg10.dtd">
<svg version="1.0" xmlns="http://www.w3.org/2000/svg"
 width="225.000000pt" height="225.000000pt" viewBox="0 0 225.000000 225.000000"
 preserveAspectRatio="xMidYMid meet">

<g transform="translate(0.000000,225.000000) scale(0.100000,-0.100000)"
fill="#000000" stroke="none">
<path d="M111 1327 c-28 -7 -81 -58 -81 -77 0 -5 16 2 36 15 32 22 48 25 125
25 53 0 89 4 89 10 0 16 17 11 46 -13 l27 -24 -33 -23 c-23 -16 -35 -20 -38
-12 -5 16 -159 16 -191 -1 -41 -21 -62 -60 -68 -124 -7 -74 9 -124 48 -158 29
-24 35 -25 170 -25 132 0 139 1 139 20 0 19 -7 20 -130 20 -126 0 -132 1 -156
25 -23 23 -25 31 -22 112 3 83 4 88 26 91 22 3 23 2 20 -78 -2 -63 0 -83 12
-90 8 -5 68 -10 133 -10 110 0 117 1 117 20 0 19 -7 20 -110 20 -110 0 -110 0
-110 24 0 21 5 25 38 28 30 2 38 7 40 26 3 20 -1 22 -37 22 -37 0 -41 2 -41
25 l0 25 110 0 110 0 0 65 c0 75 16 67 -142 69 -54 0 -111 -2 -127 -7z"/>
<path d="M460 1130 l0 -210 113 0 c134 0 172 14 201 73 16 34 17 44 7 79 -10
31 -20 43 -49 55 l-36 15 25 14 c50 26 62 111 21 147 -28 25 -91 37 -189 37
l-93 0 0 -210z m174 120 c18 -6 26 -17 26 -33 0 -32 -18 -47 -57 -47 -32 0
-33 2 -33 38 0 54 12 62 64 42z m20 -160 c20 -7 26 -17 26 -39 0 -36 -22 -51
-74 -51 l-36 0 0 50 c0 49 1 50 29 50 16 0 41 -4 55 -10z"/>
<path d="M860 1187 c0 -139 2 -157 23 -197 31 -61 74 -82 154 -78 71 4 106 24
138 79 17 29 20 56 23 192 l4 158 -54 -3 -53 -3 -2 -150 c-1 -141 -3 -151 -23
-167 -28 -23 -52 -23 -81 1 -23 18 -24 26 -27 170 l-4 151 -49 0 -49 0 0 -153z"/>
<path d="M1296 1324 c-3 -9 -6 -103 -6 -210 l0 -194 55 0 55 0 0 210 0 210
-49 0 c-35 0 -51 -4 -55 -16z"/>
<path d="M1500 1130 l0 -210 135 0 135 0 0 45 0 45 -80 0 -80 0 0 165 0 165
-55 0 -55 0 0 -210z"/>
<path d="M1840 1130 l0 -212 113 3 c106 4 116 6 150 32 58 44 72 79 72 177 0
72 -4 91 -24 123 -36 59 -88 80 -208 85 l-103 4 0 -212z m201 91 c25 -25 29
-37 29 -85 0 -86 -20 -116 -88 -131 l-32 -7 0 126 0 126 31 0 c20 0 40 -10 60
-29z"/>
</g>
</svg>
